<?xml version="1.0" encoding="utf-8"?>
<!-- Generator: Adobe Illustrator 24.0.0, SVG Export Plug-In . SVG Version: 6.00 Build 0)  -->
<svg version="1.1" id="Capa_1" xmlns="http://www.w3.org/2000/svg" xmlns:xlink="http://www.w3.org/1999/xlink" x="0px" y="0px"
	 viewBox="0 0 232.6 41.3" style="enable-background:new 0 0 232.6 41.3;" xml:space="preserve">
<g>
	<path d="M6.8,34.9V4.7h17.3c2.9,0,5.2,0.7,6.9,2.2c1.7,1.5,2.5,3.5,2.5,6c0,2.6-0.8,4.7-2.4,6.4c-1.6,1.6-3.8,2.4-6.5,2.4h-14v13.2
		C10.6,34.9,6.8,34.9,6.8,34.9z M10.6,18.2h13.3c1.9,0,3.3-0.4,4.3-1.3c1-0.8,1.5-2.1,1.5-3.7c0-1.6-0.5-2.8-1.5-3.7
		c-1-0.9-2.3-1.3-4.1-1.3H10.6V18.2z"/>
	<path d="M45.3,34.9V4.7H69v3.5h-20V17h12.1v3.5H49.1v10.9h21.2v3.5L45.3,34.9L45.3,34.9z"/>
	<path d="M81.3,34.9V4.7h17.3c2.9,0,5.3,0.7,6.9,2.2s2.5,3.5,2.5,6.2c0,2.2-0.7,4-2,5.6s-3,2.5-5.2,2.9l7.5,13.2h-4.2l-7.5-13.2H85
		v13.2L81.3,34.9L81.3,34.9z M85,18.2h13.3c1.9,0,3.3-0.4,4.3-1.3c1-0.8,1.5-2.1,1.5-3.7c0-1.6-0.5-2.8-1.5-3.7
		c-1-0.9-2.3-1.3-4.1-1.3H85V18.2z"/>
	<path d="M144.4,25.3l3,2.2c-1.4,2.6-3.3,4.6-5.7,6c-2.4,1.4-5.1,2.1-8.2,2.1c-4.5,0-8.2-1.5-11.2-4.5c-2.9-3-4.4-6.7-4.4-11.3
		c0-4.6,1.5-8.4,4.4-11.3c2.9-3,6.7-4.5,11.2-4.5c2.8,0,5.3,0.6,7.6,1.8s4.2,3,5.6,5.2l-3.1,2.2c-0.9-1.8-2.3-3.2-4.1-4.2
		s-3.8-1.5-6-1.5c-3.4,0-6.2,1.2-8.4,3.5c-2.2,2.3-3.3,5.2-3.3,8.8s1.1,6.5,3.3,8.8s5,3.5,8.4,3.5c2.4,0,4.5-0.6,6.3-1.8
		C141.7,29.2,143.2,27.5,144.4,25.3z"/>
	<path d="M159.7,34.9V4.7h3.8v11.9h17.8V4.7h3.8v30.1h-3.8V20.1h-17.8v14.8L159.7,34.9L159.7,34.9z"/>
	<path d="M195.2,34.9L210,4.7h3.1L228,34.9H224l-4.1-8.1h-16.6l-4,8.1H195.2z M204.9,23.2h13.3l-6.7-13.3L204.9,23.2z"/>
</g>
</svg>
