<?xml version="1.0" encoding="utf-8"?>
<!-- Generator: Adobe Illustrator 24.0.0, SVG Export Plug-In . SVG Version: 6.00 Build 0)  -->
<svg version="1.1" id="Capa_1" xmlns="http://www.w3.org/2000/svg" xmlns:xlink="http://www.w3.org/1999/xlink" x="0px" y="0px"
	 viewBox="0 0 437 146.9" style="enable-background:new 0 0 437 146.9;" xml:space="preserve">
<style type="text/css">
	.st0{fill:#1D1D1B;}
</style>
<g>
	<path class="st0" d="M364.5,74.1l6.7-13.6h27.9l6.9,13.6h6.8l-25-50.5h-5.2l-24.7,50.5H364.5z M385.1,32.2l11.2,22.3h-22.2
		L385.1,32.2z M300,74.1V49.3h29.8v24.7h6.3V23.6h-6.3v19.9H300V23.6h-6.4v50.5H300z M255.7,66.6c-3.1,1.9-6.6,2.9-10.6,2.9
		c-5.7,0-10.4-1.9-14.1-5.8c-3.7-3.9-5.6-8.8-5.6-14.7s1.9-10.9,5.6-14.7c3.7-3.9,8.4-5.8,14.1-5.8c3.7,0,7,0.9,10,2.6
		c3,1.7,5.3,4.1,6.9,7.1l5.3-3.7c-2.4-3.8-5.5-6.7-9.4-8.7c-3.8-2-8.1-3.1-12.8-3.1c-7.5,0-13.8,2.5-18.7,7.5
		c-4.9,5-7.4,11.3-7.4,19c0,7.6,2.5,14,7.4,18.9c4.9,5,11.2,7.5,18.7,7.5c5.1,0,9.7-1.2,13.7-3.5c4-2.4,7.2-5.7,9.5-10.1l-5-3.7
		C261.3,61.7,258.8,64.6,255.7,66.6 M159.1,74.1V52h19.6l12.6,22.1h6.9l-12.6-22.2c3.6-0.6,6.5-2.3,8.7-4.9c2.2-2.6,3.3-5.7,3.3-9.4
		c0-4.4-1.4-7.8-4.2-10.3c-2.8-2.5-6.7-3.7-11.6-3.7h-28.9v50.5H159.1z M159.1,29.4h22.6c3,0,5.2,0.7,6.9,2.2
		c1.6,1.5,2.4,3.5,2.4,6.2c0,2.7-0.8,4.8-2.4,6.2c-1.6,1.4-4,2.1-7.2,2.1h-22.3V29.4z M129.8,74.1v-5.8H94.3V50h20.2v-5.8H94.3V29.4
		h33.4v-5.8H88v50.5H129.8z M25.1,74.1V52h23.5c4.5,0,8.2-1.4,10.9-4.1c2.7-2.7,4.1-6.3,4.1-10.6c0-4.2-1.4-7.6-4.2-10
		c-2.8-2.4-6.7-3.7-11.6-3.7H18.9v50.5H25.1z M25.1,29.4h22.6c3,0,5.2,0.7,6.9,2.2c1.6,1.5,2.4,3.5,2.4,6.2c0,2.7-0.8,4.8-2.4,6.2
		c-1.6,1.4-4,2.1-7.2,2.1H25.1V29.4z"/>
	<path class="st0" d="M270.3,115h-7.5c0.1-1.2,0.5-2.2,1.2-2.8c0.7-0.6,1.5-0.9,2.6-0.9c1.1,0,1.9,0.3,2.6,1
		C269.7,112.9,270.1,113.8,270.3,115 M270.8,111.1c-1.1-1.2-2.5-1.7-4.3-1.7c-1.9,0-3.4,0.6-4.5,1.8c-1.1,1.2-1.6,2.9-1.6,4.9
		c0,2,0.6,3.7,1.7,4.9c1.1,1.3,2.6,1.9,4.5,1.9c1.4,0,2.6-0.4,3.6-1.1c1-0.7,1.7-1.8,2.1-3.1l-2.1-0.2c-0.6,1.7-1.8,2.6-3.6,2.6
		c-1.2,0-2.1-0.4-2.8-1.1c-0.7-0.7-1-1.8-1.1-3.2h9.7v-0.8C272.4,113.8,271.9,112.3,270.8,111.1 M247.2,111.5v-1.8h-2.1v12.9h2.3
		v-7.2c0-1.3,0.3-2.4,1-3c0.7-0.7,1.6-1,2.6-1c1.7,0,2.6,0.9,2.6,2.7v8.5h2.3v-9c0-1.3-0.4-2.4-1.2-3.1c-0.8-0.8-1.8-1.1-3.2-1.1
		C249.6,109.4,248.2,110.1,247.2,111.5 M239.8,109.7h-2.3v12.9h2.3V109.7z M239.8,104.8h-2.3v2.5h2.3V104.8z M232.6,109.7h-10v1.8
		h7.2l-7.5,9.4v1.6H233v-1.8H225l7.7-9.7V109.7z M209.8,120.6c-0.4-0.4-0.7-0.9-0.7-1.5c0-1.2,0.8-2,2.5-2.2l3.9-0.6v1.8
		c0,0.8-0.4,1.5-1.1,2.2c-0.8,0.6-1.7,0.9-2.7,0.9C210.8,121.1,210.2,120.9,209.8,120.6 M218,120.6c-0.2-0.2-0.2-0.5-0.2-0.9v-6.3
		c0-2.8-1.7-4.1-5.1-4.1c-3.4,0-5.2,1.4-5.4,4.2h2.3c0.1-0.8,0.3-1.4,0.8-1.8c0.5-0.3,1.2-0.5,2.1-0.5c1.9,0,2.9,0.7,2.9,2v0.6
		c0,0.6-0.3,0.9-0.9,1l-3.3,0.4c-2.9,0.4-4.4,1.7-4.4,4c0,1.2,0.4,2.1,1.1,2.8c0.8,0.7,1.8,1,3.2,1c1,0,2-0.2,2.8-0.6
		c0.8-0.4,1.4-0.9,1.9-1.6c0.1,1.3,0.8,1.9,2.2,1.9h1.2v-1.7h-0.4C218.5,120.9,218.2,120.8,218,120.6 M192.7,115.9
		c0-1.4,0.3-2.6,0.9-3.4c0.6-0.8,1.5-1.2,2.7-1.2c1.1,0,2,0.4,2.7,1.2c0.7,0.8,1,1.9,1,3.4c0,1.5-0.4,2.7-1.1,3.6
		c-0.7,0.9-1.6,1.3-2.7,1.3s-2-0.4-2.6-1.3C193,118.6,192.7,117.4,192.7,115.9 M198.4,110c-0.7-0.4-1.6-0.6-2.5-0.6
		c-1.7,0-3,0.6-4,1.8c-1,1.2-1.6,2.8-1.6,4.7c0,2.1,0.5,3.7,1.5,5c1,1.3,2.4,2,4.1,2c0.9,0,1.6-0.2,2.4-0.6c0.7-0.4,1.3-0.9,1.7-1.6
		v1.7c0,1.4-0.3,2.3-0.9,2.9c-0.6,0.6-1.5,0.9-2.9,0.9c-1,0-1.7-0.2-2.2-0.5c-0.5-0.3-0.9-0.8-1-1.5h-2.2c0.2,1.2,0.7,2.2,1.7,2.8
		c0.9,0.6,2.2,1,3.8,1c4,0,6.1-1.9,6.1-5.8v-12.5h-2.2v2C199.7,111,199.1,110.4,198.4,110 M177.9,120.6c-0.4-0.4-0.7-0.9-0.7-1.5
		c0-1.2,0.8-2,2.5-2.2l3.8-0.6v1.8c0,0.8-0.4,1.5-1.1,2.2c-0.8,0.6-1.7,0.9-2.7,0.9C178.9,121.1,178.3,120.9,177.9,120.6
		 M186.1,120.6c-0.2-0.2-0.2-0.5-0.2-0.9v-6.3c0-2.8-1.7-4.1-5-4.1c-3.4,0-5.2,1.4-5.4,4.2h2.3c0.1-0.8,0.3-1.4,0.8-1.8
		c0.5-0.3,1.2-0.5,2.1-0.5c1.9,0,2.9,0.7,2.9,2v0.6c0,0.6-0.3,0.9-0.9,1l-3.3,0.4c-2.9,0.4-4.4,1.7-4.4,4c0,1.2,0.4,2.1,1.2,2.8
		c0.8,0.7,1.8,1,3.2,1c1,0,2-0.2,2.8-0.6c0.8-0.4,1.4-0.9,1.9-1.6c0.1,1.3,0.8,1.9,2.2,1.9h1.2v-1.7H187
		C186.6,120.9,186.3,120.8,186.1,120.6 M162.3,111.6c-0.6-1.5-1.8-2.2-3.6-2.2c-1.7,0-3,0.7-3.9,2.2l0.1-1.9h-2.2v12.9h2.3v-6.9
		c0-1.5,0.3-2.5,0.9-3.3c0.6-0.7,1.3-1.1,2.3-1.1c0.7,0,1.2,0.2,1.6,0.6c0.4,0.4,0.6,1,0.6,1.8v8.8h2.3v-7c0-1.4,0.3-2.5,0.9-3.2
		c0.6-0.7,1.3-1,2.3-1c0.7,0,1.3,0.2,1.6,0.6c0.4,0.4,0.6,1,0.6,1.8v8.8h2.3v-8.8c0-2.9-1.3-4.4-3.9-4.4
		C164.5,109.4,163.2,110.1,162.3,111.6"/>
</g>
</svg>
