<?xml version="1.0" encoding="utf-8"?>
<!-- Generator: Adobe Illustrator 24.0.0, SVG Export Plug-In . SVG Version: 6.00 Build 0)  -->
<svg version="1.1" id="Capa_1" xmlns="http://www.w3.org/2000/svg" xmlns:xlink="http://www.w3.org/1999/xlink" x="0px" y="0px"
	 viewBox="0 0 407 22.8" style="enable-background:new 0 0 407 22.8;" xml:space="preserve">
<style type="text/css">
	.st0{fill:#1D1D1B;}
	.st1{fill:none;stroke:#1D1D1B;stroke-width:1.5;stroke-linecap:round;}
</style>
<path class="st0" d="M245.2,4.1v12.1h-2.4V4.1H245.2z M232.4,4.1v12.1H230V4.1H232.4z M211.2,9.9c0.2-0.6,0.5-1.1,0.9-1.5
	c0.4-0.4,0.9-0.7,1.4-0.9c0.6-0.2,1.2-0.3,1.9-0.3c0.7,0,1.3,0.1,1.9,0.3c0.6,0.2,1,0.5,1.4,0.9c0.4,0.4,0.7,0.9,0.9,1.5
	c0.2,0.6,0.3,1.2,0.3,1.9c0,0.7-0.1,1.3-0.3,1.9c-0.2,0.6-0.5,1-0.9,1.4c-0.4,0.4-0.9,0.7-1.4,0.9c-0.6,0.2-1.2,0.3-1.9,0.3
	c-0.7,0-1.3-0.1-1.9-0.3c-0.6-0.2-1-0.5-1.4-0.9c-0.4-0.4-0.7-0.9-0.9-1.4c-0.2-0.6-0.3-1.2-0.3-1.9C210.9,11.1,211,10.4,211.2,9.9
	 M213.4,12.8c0.1,0.3,0.2,0.6,0.3,0.9s0.4,0.5,0.7,0.6c0.3,0.2,0.6,0.2,1,0.2s0.7-0.1,1-0.2c0.3-0.2,0.5-0.4,0.7-0.6
	s0.3-0.6,0.3-0.9c0.1-0.3,0.1-0.7,0.1-1s0-0.7-0.1-1c-0.1-0.3-0.2-0.6-0.3-0.9c-0.2-0.3-0.4-0.5-0.7-0.6c-0.3-0.2-0.6-0.2-1-0.2
	s-0.7,0.1-1,0.2c-0.3,0.2-0.5,0.4-0.7,0.6c-0.2,0.3-0.3,0.6-0.3,0.9c-0.1,0.3-0.1,0.7-0.1,1S213.4,12.5,213.4,12.8 M198.8,7.4V9h0
	c0.1-0.3,0.3-0.5,0.5-0.8c0.2-0.2,0.4-0.4,0.7-0.6c0.2-0.2,0.5-0.3,0.8-0.4c0.3-0.1,0.6-0.1,0.9-0.1c0.2,0,0.3,0,0.5,0.1v2.2
	c-0.1,0-0.2,0-0.4-0.1c-0.2,0-0.3,0-0.5,0c-0.4,0-0.8,0.1-1.1,0.2c-0.3,0.1-0.5,0.3-0.7,0.6c-0.2,0.3-0.3,0.5-0.4,0.9
	c-0.1,0.3-0.1,0.7-0.1,1.1v3.9h-2.4V7.4H198.8z M182.5,9c-0.4,0-0.7,0.1-1,0.3c-0.3,0.2-0.5,0.4-0.6,0.7c-0.2,0.3-0.3,0.6-0.3,0.9
	s-0.1,0.7-0.1,1c0,0.3,0,0.6,0.1,1s0.2,0.6,0.3,0.9c0.2,0.3,0.4,0.5,0.6,0.7c0.3,0.2,0.6,0.3,0.9,0.3c0.6,0,1-0.2,1.3-0.5
	c0.3-0.3,0.5-0.8,0.6-1.3h2.3c-0.2,1.2-0.6,2-1.4,2.7c-0.7,0.6-1.7,0.9-2.9,0.9c-0.7,0-1.3-0.1-1.8-0.3c-0.5-0.2-1-0.5-1.4-0.9
	c-0.4-0.4-0.7-0.9-0.9-1.4c-0.2-0.5-0.3-1.1-0.3-1.8c0-0.7,0.1-1.3,0.3-1.9c0.2-0.6,0.5-1.1,0.9-1.5c0.4-0.4,0.8-0.8,1.4-1
	c0.6-0.2,1.2-0.4,1.9-0.4c0.5,0,1,0.1,1.5,0.2c0.5,0.1,0.9,0.3,1.3,0.6c0.4,0.3,0.7,0.6,0.9,1c0.2,0.4,0.4,0.9,0.4,1.5h-2.3
	C184.1,9.5,183.5,9,182.5,9 M162.8,14c0.1,0.2,0.2,0.3,0.4,0.5c0.2,0.1,0.4,0.2,0.6,0.3c0.2,0.1,0.4,0.1,0.7,0.1
	c0.2,0,0.3,0,0.5-0.1c0.2,0,0.4-0.1,0.5-0.2s0.3-0.2,0.4-0.3c0.1-0.1,0.2-0.3,0.2-0.5c0-0.4-0.2-0.6-0.7-0.8c-0.5-0.2-1.1-0.4-2-0.5
	c-0.3-0.1-0.7-0.2-1-0.3c-0.3-0.1-0.6-0.2-0.9-0.4c-0.3-0.2-0.5-0.4-0.6-0.7c-0.2-0.3-0.2-0.6-0.2-1c0-0.6,0.1-1,0.3-1.4
	c0.2-0.4,0.5-0.6,0.9-0.9c0.4-0.2,0.8-0.4,1.2-0.4c0.5-0.1,0.9-0.1,1.4-0.1s0.9,0,1.4,0.1c0.4,0.1,0.8,0.2,1.2,0.5
	c0.3,0.2,0.6,0.5,0.9,0.9c0.2,0.4,0.4,0.8,0.4,1.3H166c0-0.5-0.2-0.8-0.5-0.9c-0.3-0.2-0.7-0.2-1.1-0.2c-0.1,0-0.3,0-0.4,0
	c-0.2,0-0.3,0.1-0.4,0.1s-0.2,0.1-0.3,0.2C163,9.2,163,9.4,163,9.6c0,0.2,0.1,0.4,0.2,0.5c0.2,0.1,0.4,0.2,0.6,0.3
	c0.3,0.1,0.5,0.2,0.9,0.2c0.3,0.1,0.7,0.1,1,0.2c0.3,0.1,0.7,0.2,1,0.3c0.3,0.1,0.6,0.3,0.9,0.4s0.5,0.4,0.6,0.7
	c0.2,0.3,0.2,0.6,0.2,1c0,0.6-0.1,1.1-0.3,1.4c-0.2,0.4-0.5,0.7-0.9,0.9c-0.4,0.2-0.8,0.4-1.3,0.5s-1,0.1-1.5,0.1
	c-0.5,0-1-0.1-1.5-0.2c-0.5-0.1-0.9-0.3-1.3-0.5c-0.4-0.2-0.7-0.5-0.9-0.9c-0.2-0.4-0.4-0.9-0.4-1.5h2.3
	C162.7,13.5,162.7,13.8,162.8,14"/>
<line class="st1" x1="141.5" y1="11.7" x2="7.9" y2="11.7"/>
<polyline class="st1" points="10.1,13.8 7.9,11.7 10.1,9.6 "/>
<line class="st1" x1="264.6" y1="11.7" x2="398.2" y2="11.7"/>
<polyline class="st1" points="396,13.8 398.2,11.7 396,9.6 "/>
</svg>
